<?xml version="1.0" standalone="no"?>
<!DOCTYPE svg PUBLIC "-//W3C//DTD SVG 1.1//EN" "http://www.w3.org/Graphics/SVG/1.1/DTD/svg11.dtd" >
<!--
2013-9-30: Created.
-->
<svg>
<metadata>
Created by iconfont
</metadata>
<defs>

<font id="iconfont" horiz-adv-x="1024" >
  <font-face
    font-family="iconfont"
    font-weight="500"
    font-stretch="normal"
    units-per-em="1024"
    ascent="896"
    descent="-128"
  />
    <missing-glyph />
    
    <glyph glyph-name="mianfei" unicode="&#58949;" d="M512 834C263.85434756 834 62 632.14565244 62 384 62 294.74347823000005 88.17826045 208.38260888000002 137.67826045 134.30869599000005 146.67826045 120.84782578 164.91304355 117.28695644000004 178.39347822 126.22826045 191.87391289 135.22826045 195.47391289 153.46304355999996 186.47391289 166.94347822999998 143.45 231.33260887999995 120.69565244 306.38478223000004 120.69565244 384 120.69565244 599.7652177800001 296.23478222 775.30434756 512 775.30434756 727.76521778 775.30434756 903.30434756 599.7652177800001 903.30434756 384 903.30434756 168.23478222000006 727.76521778-7.3043475599999965 512-7.3043475599999965 434.15-7.3043475599999965 358.90217422 15.567391120000025 294.37608711 58.82608711 280.97391289 67.82608711 262.71956533 64.24565243999996 253.66086933 50.78478222000001 244.64130401 37.323912889999974 248.24130401 19.10869599 261.70217422 10.069565330000046 335.91304356-39.684782229999996 422.46956533-66 512-66 760.14565244-66 962 135.85434755999995 962 384 962 632.14565244 760.14565244 834 512 834ZM346.13586934 363.70891288999997C333.67282578 363.70891288999997 327.41195645 369.14804355 327.41195645 380.02630401L327.41195645 424.43934756C327.41195645 436.56978223 333.67282578 442.61543467 346.13586934 442.61543467L468.10543467 442.61543467C465.09239112 414.44152177 457.67717422 388.14586933 445.91847823 363.70891288999997L346.13586934 363.70891288999997ZM522.94673955 442.61543467L677.55108711 442.61543467C684.35978223 442.61543467 689.60326045 441.285 693.34021778 438.60456533 696.54891289 436.29586933 698.15326045 431.56108711 698.15326045 424.43934756L698.15326045 376.81760887999997C698.15326045 368.09152178 691.325 363.70891288999997 677.55108711 363.70891288999997L505.29891289 363.70891288999997C513.16413066 388.32195644 519.05326045 414.63717422 522.94673955 442.61543467ZM356.03586934 255.90456532999997C334.29891289 240.93717421999997 302.79891289 227.28065244000004 261.61413066 214.97413067000002L261.61413066 168.70239112000002C278.57717422 170.48282577999998 292.09673955 172.53717422 302.27065244 174.86543467 334.025 182.71108711 364.58586933 197.22847822999995 394.01195645 218.45673954999995 425.43369599 241.46543467000004 454.31195645 273.39586934 480.68586934 314.22847822999995L520.81413067 314.22847822999995 520.81413067 223.26978222000002C520.81413067 204.72195645 526.35108711 191.08500000000004 537.38586933 182.33934755999996 547.40326045 174.31760887999997 560.14021777 170.30673954999997 575.63586934 170.30673954999997L756.20326045 170.30673954999997 756.20326045 221.13717422000002 592.75543467 221.13717422000002C585.65326045 221.13717422000002 580.46847822 222.46760887999994 577.25978222 225.14804355 574.22717422 227.65239111999995 572.81847823 233.07195644 572.975 241.46543467000004L573.22934756 314.22847822999995 695.21847823 314.22847822999995C711.26195644 314.22847822999995 724.48804356 319.13934756000003 734.79891289 328.94152177 743.54456533 337.31543466999995 747.90760888 350.07195645 747.90760888 367.19152177L747.90760888 439.13282578C747.90760888 456.62413066 743.09456533 469.81108711 733.46847822 478.73282578 727.57934756 484.25021777 718.40326045 488.45673955 705.92065244 491.29369599L720.08586934 523.92847822C724.21413066 533.39804356 726.24891289 541.32195644 726.24891289 547.7393475599999 726.24891289 560.59369599 721.08369599 572.0002177700001 710.73369599 581.9784782300001 700.22717422 592.50456533 685.76847822 597.76760888 667.39673955 597.76760888L377.96847823 597.76760888 385.71630401 624.2393475599999 335.43369599 624.2393475599999C326.33586934 598.92195644 316.98369599 580.37413066 307.35760888 568.61543467 295.775 554.15673955 282.19673955 545.43065244 266.68152177 542.39804356L266.68152177 491.29369599C287.20543467 497.00673955 304.24673955 504.57847822 317.78586934 514.04804355 329.74021778 522.42195644 341.44021777 533.8284782200001 352.82717422 548.28717422L646.79456533 548.28717422C657.34021778 548.28717422 663.91413067 547.5632604499999 666.59456533 546.135 670.72282578 544.0023911200001 672.73804356 540.9697822200001 672.73804356 537.03717422 672.73804356 533.12413066 670.99673955 527.15673955 667.39673955 519.11543467L655.61847822 493.17195644 348.54239112 493.17195644C321.64021777 493.17195644 303.19021778 488.535 293.17282578 479.26108711 282.66630401 469.28282578 277.38369599 455.01978223 277.38369599 436.47195644L277.38369599 369.85239112C277.38369599 342.20673954999995 288.80978223 324.55891289 311.62282578 316.88934756000003 316.98369599 315.12847823000004 327.80326045 314.22847822999995 344.00326045 314.22847822999995L416.49239112 314.22847822999995C395.61630401 288.36326045 375.48369599 268.91543466999997 356.03586934 255.90456532999997L356.03586934 255.90456532999997Z"  horiz-adv-x="1024" />

    
    <glyph glyph-name="ditu" unicode="&#59496;" d="M817.2331543 340.39526366999996h-149.56424561a1505.23549805 1505.23549805 0 0 0-122.96535645-160.02938232l-32.70355224-36.19193116-32.70355224 36.19193116A1505.23549805 1505.23549805 0 0 0 356.33109131 340.39526366999996H206.7668457l-130.81420898-392.44262695h872.09472656zM730.02368164 602.02368164A218.02368164 218.02368164 0 0 1 293.97631836 602.02368164c0-149.12819824 218.02368164-392.44262695 218.02368164-392.44262695s218.02368164 243.31442872 218.02368164 392.44262695zM424.79052734 602.02368164a87.20947266 87.20947266 0 1 0 87.20947266-87.20947266 87.20947266 87.20947266 0 0 0-87.20947266 87.20947266z"  horiz-adv-x="1024" />

    
    <glyph glyph-name="dengpao" unicode="&#59039;" d="M554.41-1.1870000000000118c16.52 0 29.913-13.39 29.913-29.906 0-16.281-13.013-29.524-29.207-29.899l-0.707-0.008H407.145c-16.52 0-29.913 13.39-29.913 29.907 0 16.28 13.013 29.523 29.207 29.898l0.706 0.008H554.41z m40.268 84.377c16.52 0 29.913-13.39 29.913-29.907 0-16.28-13.013-29.523-29.207-29.898l-0.706-0.009H365.323c-16.52 0-29.913 13.39-29.913 29.907 0 16.281 13.013 29.524 29.207 29.899l0.706 0.008h229.355zM480 827c189.986 0 344-153.982 344-343.927 0-120.12-61.593-225.858-154.926-287.365l-2.205-10.384c-1.519-7.084-3.529-16.359-6.03-27.826-5.927-27.183-29.801-46.65-57.546-47.072H356.239c-28.52 0-53.076 20.128-58.666 48.09l-2.757 13.628c-3.321 16.19-5.226 24.448-5.715 24.775C196.791 258.597 136 363.73699999999997 136 483.073 136 673.018 290.014 827 480 827z m-62.585-133.938C316.255 674.183 266.292 605.4200000000001 260.3 496.958c-0.911-16.492 11.722-30.6 28.218-31.51 16.495-0.912 30.606 11.72 31.517 28.211 4.58 82.907 36.8 127.25 108.358 140.605 16.24 3.031 26.947 18.65 23.916 34.887-3.032 16.237-18.654 26.942-34.894 23.911z"  horiz-adv-x="1024" />

    
    <glyph glyph-name="yingyong" unicode="&#58892;" d="M482 699v-225c0-33.14-26.86-60-60-60H197c-33.14 0-60 26.86-60 60V699c0 33.14 26.86 60 60 60h225c33.14 0 60-26.86 60-60zM887 699v-225c0-33.14-26.86-60-60-60H602c-33.14 0-60 26.86-60 60V699c0 33.14 26.86 60 60 60h225c33.14 0 60-26.86 60-60zM482 294v-225c0-33.14-26.86-60-60-60H197c-33.14 0-60 26.86-60 60V294c0 33.14 26.86 60 60 60h225c33.14 0 60-26.86 60-60zM887 294v-225c0-33.14-26.86-60-60-60H602c-33.14 0-60 26.86-60 60V294c0 33.14 26.86 60 60 60h225c33.14 0 60-26.86 60-60z"  horiz-adv-x="1024" />

    
    <glyph glyph-name="shuiwu" unicode="&#59038;" d="M389.9648 270.432l2.46400035-0.04480035a179.20000035 179.20000035 0 0 0 35.3919993-4.6143993l10.4832-2.73280035 140.7168-41.84320035c29.07520035-8.6016 46.14400035-38.7072 38.5728-68.0511993-2.50879965-9.85600035-7.48159965-18.50239965-14.0223993-25.44640035l-0.8960007-0.89599965a58.01599965 58.01599965 0 0 0-51.96799965-16.3520007l-105.72799965 19.7120007v-0.04480035l-15.36640035 2.8224a20.47360035 20.47360035 0 0 1-7.43680035 0l2.06080035 0.31360035a20.33920035 20.33920035 0 0 1-3.13600035-0.5376l1.0752 0.22399965a20.38399965 20.38399965 0 0 1-3.2703993-0.89599965l2.23999965 0.672a20.4288 20.4288 0 0 1-3.71839965-1.25440035l1.4784 0.62719965a20.51839965 20.51839965 0 0 1-3.3152007-1.56799965l1.8368007 0.89599965a20.51839965 20.51839965 0 0 1-3.00160035-1.6575993l1.16479965 0.76159965a20.38399965 20.38399965 0 0 1-9.36319965-12.096 17.0688 17.0688 0 0 1 11.78239965-21.05599965l1.38880035-0.3584007 83.23840035-16.128a264.096 264.096 0 0 1 189.32479965 34.7648007l118.4064 73.33759965a42.29119965 42.29119965 0 0 0 57.16480035-12.00640035 43.9488 43.9488 0 0 0-8.37760035-58.8672l-129.60640035-106.26559965a304.46080035 304.46080035 0 0 0-254.50879965-62.71999965l-109.8048 22.6239993a179.20000035 179.20000035 0 0 1-65.09440035 1.344l-136.8192-22.3104a44.80000035 44.80000035 0 0 0-51.96799965 44.2176V145.66399965000005a44.80000035 44.80000035 0 0 0 28.53760035 41.7536007l182.47039965 70.8735993a179.20000035 179.20000035 0 0 0 11.0208 3.8528007l-11.0208-3.8528007a179.20000035 179.20000035 0 0 0 67.64800035 12.096z m55.01440035-140.3136l79.1616-14.69440035a364.94080035 364.94080035 0 0 0-74.7264 5.2416 24.192 24.192 0 0 1-2.5536 6.5856l-1.8816 2.86720035z m217.7727993 20.24959965l-0.35839965-2.1951993a356.16 356.16 0 0 0-26.6112-11.0208c9.22879965 3.71839965 18.23359965 8.15359965 26.96959965 13.2159993zM512 832.00000035a358.39999965 358.39999965 0 0 0 232.512-631.0976007l-76.15999965-47.1744c-1.79200035-1.16479965-3.71839965-2.2848-5.6000007-3.36a101.24800035 101.24800035 0 0 1-64.06399965 111.46240035l-6.89920035 2.32960035-45.4272 13.44a35.57119965 35.57119965 0 0 1 2.7776007 9.63199965l0.35839965 5.19679965v57.2096007h98.56000035l4.4799993 0.2688a35.83999965 35.83999965 0 0 1 0 71.0976l-4.4799993 0.2688h-98.56000035v62.71999965h98.56000035l4.4799993 0.31360035a35.83999965 35.83999965 0 0 1 31.0464 30.6432l0.31360035 4.92799965-0.2688 4.48000035a35.83999965 35.83999965 0 0 1-30.6432 31.00159965l-4.92799965 0.31360035h-77.45920035l113.34400035 113.4783993 3.44959965 4.032a35.83999965 35.83999965 0 0 1-50.17600035 50.0864007l-4.032-3.4944-119.5263993-119.616-119.66080035 119.616-4.032 3.4944a35.83999965 35.83999965 0 0 1-42.64960035 0l-4.032-3.4496007-3.44959965-4.032a35.83999965 35.83999965 0 0 1 0-42.6495993l3.44959965-4.032 113.3888007-113.3888007H379.25760035l-4.48000035-0.3135993a35.83999965 35.83999965 0 0 1 0-71.0976l4.48000035-0.31360035h98.5599993v-62.71999965h-98.5599993l-4.48000035-0.2688a35.83999965 35.83999965 0 0 1 0-71.0976l4.48000035-0.31360035h98.5599993v-51.56479965l-26.7903993 7.9296a223.99999965 223.99999965 0 0 1-133.1904-1.7472l-11.6480007-4.1664-86.64319965-33.6A358.39999965 358.39999965 0 0 0 512 832.00000035z"  horiz-adv-x="1024" />

    
    <glyph glyph-name="yujing" unicode="&#59174;" d="M211.75535715 6.511607140000024v282.37500001c0 168.91071429 136.96785715 305.90357143 306.04821428 305.90357142s306.04910714-136.99375 306.04910714-305.90357142v-282.37500001h104.475c21.69642858 0 39.28571429-17.58928572 39.28571428-39.28571428s-17.58928572-39.28571429-39.28571428-39.28571429H94.80982143c-21.69732143 0-39.28571429 17.58928572-39.28571429 39.28571429s17.58839286 39.28571429 39.28571429 39.28571428h116.94642857z m328.20357142 465.00357144L388.99732143 222.98928572h120.73303571l-30.22767857-186.39464287L630.46428571 285.12053571H509.72946429l30.22857143 186.39464287h0.00089285z m231.50892857 273c14.17410714-8.24732143 19.01696429-26.44821429 10.85357143-40.61428572l-54.26607142-94.31785715-51.30714286 29.67678572 54.26785714 94.31785714c8.07142857 14.16517858 26.19017857 19.00625 40.27321428 10.93750001h0.17857143zM517.71428571 814.35714286c17.76071428 0 32.1125-13.35892857 32.11250001-29.94553572v-106.86875h-64.22410715V784.50089286C485.60178571 800.99732143 499.95357143 814.35714286 517.71428571 814.35714286h-0.00089286z m-253.57410714-69.84196428c14.08303571 8.15892857 32.20089286 3.31785715 40.36428571-10.75892858 0 0 0-0.08928572 0.08928572-0.08928571l54.26785714-94.31785715-51.30803572-29.67589286-54.26785713 94.31785715c-8.16071429 14.16607143-3.31785715 32.27678572 10.85357142 40.52410715h0.00089286zM78.46428571 558.12053571c8.07232143 14.16696429 26.19107143 19.09821429 40.36428572 10.93928572 0 0 0.08928572 0 0.08928572-0.09017857l94.00267856-54.51071429-29.6-51.4625L89.31696429 517.59821429c-14.17142857 8.15803572-19.01607143 26.35892857-10.85267858 40.52410714z m878.67857143 0c8.16339285-14.16428571 3.31875-32.36517858-10.85267857-40.61249999L852.28571429 463.08660715l-29.6 51.46160714 94.00267857 54.51160714c14.08303571 8.15803572 32.20089286 3.31696429 40.36428571-10.75892857 0-0.08928572 0.08928572-0.08928572 0.08928571-0.17857143v-0.00178572z"  horiz-adv-x="1024" />

    
    <glyph glyph-name="jiesuanguanli" unicode="&#58886;" d="M512 850.03377778C254.64579201 850.03377778 45.96622222 641.35420799 45.96622222 384s208.67956978-466.03377778 466.03377778-466.03377778 466.03377778 208.67956978 466.03377778 466.03377778S769.35420799 850.03377778 512 850.03377778z m155.34459259-365.57760831v-77.6722963h-116.50844444v-77.67229628H667.34459259v-77.6722963h-116.50844444v-113.4015526h-77.6722963v113.4015526H356.65540741v77.6722963h116.50844444v77.67229628H356.65540741v77.6722963h70.94069688L346.29910164 629.96227201h89.06423228L512 492.48230756l76.89557333 137.47996445h89.0642335l-81.29700386-145.50610254H667.34459259z"  horiz-adv-x="1024" />

    
    <glyph glyph-name="order_fill" unicode="&#59155;" d="M640 416.032h-256a32 32 0 0 0 0 64h256a32 32 0 0 0 0-64m0-160h-256a32 32 0 0 0 0 64h256a32 32 0 0 0 0-64M800.256 768H223.744A64 64 0 0 1 160 703.936v-639.84A64 64 0 0 1 223.744 0h576.512A64 64 0 0 1 864 64.096V703.936A64 64 0 0 1 800.256 768"  horiz-adv-x="1024" />

    
    <glyph glyph-name="dahuizhuce" unicode="&#58924;" d="M256.44103914 604.72585238a222.80883579 191.59549675 90 1 1 383.19099224 0 222.80883579 191.59549675 90 1 1-383.19099224 0ZM699.69722002 175.19764093000003c49.72511329 0 91.1827294-35.36153336 100.61804824-82.30851325 15.20599154 16.86496499 24.82986398 41.68570646 24.82986397 69.38342 0 40.74901678-20.80939984 75.28638604-49.62323414 87.37514975h0.047139L559.0402758 365.27253840000003c-65.38576528-47.13857517-152.05991797-45.61797591-225.0486784 0-12.16479298-9.12359568-204.34267912-114.99987444-205.88456759-115.62484097h0.04713902C99.34033451 237.55893372000003 78.53245488 203.02156447000004 78.53245488 162.27254768c0-50.80778069 32.33706212-91.99625079 72.2284614-91.99625079h446.35516242c-0.01672606 0.76029901-0.057783 1.51603739-0.05778299 2.28089953-0.00152021 56.68641708 45.95250722 102.6404445 102.63892431 102.64044451zM814.32454787-43.76559993000001c-19.26751264-19.26751264-48.09046947-21.68070298-64.3791284-5.39204528l-88.48062405 88.48062531c-16.28865893 16.28865893-13.87394711 45.113136 5.39204401 64.37912839 19.26751264 19.26751264 48.09046947 21.68070298 64.37912843 5.39204405l88.4806253-88.48062406c16.28865893-16.28865893 13.87546733-45.113136-5.39204529-64.37912841zM745.17986217-44.393608109999946c-19.26751264 19.26751264-16.77525006 52.99744259 5.56539302 75.33656673l121.3529378 121.35293778c22.34064309 22.34064309 56.07057432 24.83138421 75.33656547 5.56539303 19.26751264-19.26751264 16.77525006-52.99592238-5.56539304-75.33656547l-121.35293776-121.35293906c-22.33912289-22.34064309-56.06905412-24.83290566-75.33656549-5.56539301z"  horiz-adv-x="1024" />

    
    <glyph glyph-name="renzhengdunpaianquanbaozhangzhibao" unicode="&#59379;" d="M890.40645162 705.80806451l-37.49516129 0.60967742c-0.91451613 0-84.8467742 1.82903226-171.62419355 36.98709678-89.01290322 36.07258064-146.32258064 77.53064516-146.83064516 78.03870967l-22.65967742 16.35967742-22.45645162-16.35967742c-0.50806451-0.40645162-57.91935484-41.86451613-146.83064516-78.03870967-86.67580645-35.15806451-170.70967742-36.98709678-171.52258064-36.98709678l-37.5967742-0.60967742v-381.45483871c0-191.54032258 246.20806451-394.05483871 378.50806451-394.05483871 132.40161291 0 378.60967742 202.51451613 378.60967742 394.05483871 0.10161291-0.2032258-0.10161291 381.45483871-0.10161289 381.45483871zM520.33225807 379.42741936000004L670.51612903 529.61129033c12.6 12.6 33.32903226 12.6 46.03064517 0 12.6-12.70161291 12.6-33.32903226 0-46.03064517L471.15161291 238.18548386999998c-6.3-6.3-14.63225807-9.45-23.06612904-9.45-8.33225807 0-16.66451613 3.15-22.96451613 9.45L307.4532258 355.8532258c-12.6 12.6-12.6 33.32903226 0 46.03064517 12.6 12.6 33.32903226 12.6 46.03064517 0l94.70322581-94.70322581 72.14516129 72.2467742"  horiz-adv-x="1024" />

    
    <glyph glyph-name="computer-fill" unicode="&#58903;" d="M698.81013561 44.29112283999996h-50.5696227L623.84810667 163.87340709c-2.97468369 14.27848171-15.46835518 24.39240624-29.74683688 24.39240624H429.30379348c-14.27848171 0-26.77215319-10.11392454-29.74683688-24.39240624l-24.98734298-119.58228425h-49.37974923c-16.65822865 0-30.34177362-13.68354497-30.34177362-30.34177361s13.68354497-30.34177362 30.34177362-30.34177362h373.62027122c16.65822865 0.59493674 30.34177362 13.68354497 30.34177362 30.34177362s-13.68354497 30.34177362-30.34177362 30.34177361zM454.29113646 128.17720283999995h115.41772708l17.2531654-83.29114327H437.03797106l17.2531654 83.29114327zM943.32913475 288.21518525v392.6582468a59.92244652 59.92244652 0 0 1-60.08861049 60.0886105H140.75947574a59.92244652 59.92244652 0 0 1-60.08861049-60.0886105v-392.6582468h862.6582695zM80.67086525 244.18986667000001v-47.59493901a59.92244652 59.92244652 0 0 1 60.08861049-60.0886105h742.48104852A59.92244652 59.92244652 0 0 1 943.32913475 196.59492766000005v47.59493901H80.67086525z"  horiz-adv-x="1024" />

    
    <glyph glyph-name="1xiazaiappdingyuegongzhonghaocheng" unicode="&#59479;" d="M69.03125 146.40767029999995C69.03125 33.65198824000004 161.65198824-58.96875 274.4076703-58.96875s205.3764203 92.62073824 205.37642029 205.3764203l0 205.37642029L274.4076703 351.78409059C161.65198824 351.78409059 69.03125 259.16335234999997 69.03125 146.40767029999995L69.03125 146.40767029999995zM954.96875 621.5923296999999C954.96875 734.34801176 862.34801176 826.96875 749.5923297 826.96875c-112.75568206 0-205.3764203-92.62073824-205.37642029-205.3764203l0-205.37642029 205.37642029 0C862.34801176 416.21590941 954.96875 508.83664765 954.96875 621.5923296999999L954.96875 621.5923296999999zM274.4076703 416.21590941l205.37642029 0L479.78409059 621.5923296999999C479.78409059 734.34801176 387.16335235 826.96875 274.4076703 826.96875 161.65198824 826.96875 69.03125 734.34801176 69.03125 621.5923296999999 69.03125 508.83664765 161.65198824 416.21590941 274.4076703 416.21590941L274.4076703 416.21590941zM749.5923297 351.78409059l-205.37642029 0 0-205.3764203c0-112.75568206 92.62073824-205.3764203 205.37642029-205.37642029s205.3764203 92.62073824 205.3764203 205.37642029S862.34801176 351.78409059 749.5923297 351.78409059L749.5923297 351.78409059zM749.5923297 17.544034409999995"  horiz-adv-x="1024" />

    
    <glyph glyph-name="api" unicode="&#58940;" d="M973.59998407 797.24897963l-48.25391445 48.22155036a9.38540259 9.38540259 0 0 1-12.94538183 0l-86.60461113-86.57224704a226.73837853 226.73837853 0 0 1-127.54438258 39.03032889c-58.25422222 0-116.50844445-22.20133149-161.00819741-66.66872035l-115.92590222-115.95826632a9.15885853 9.15885853 0 0 1 0-12.84829184l309.13573888-309.13573888c1.81235371-1.81235371 4.07779555-2.58907705 6.47269149-2.58907704 2.26544185 0 4.66033778 0.87381333 6.47269148 2.58907704l115.95826517 115.95826518a227.80637184 227.80637184 0 0 1 27.63839261 288.42312704l86.60460999 86.57224704a9.28831261 9.28831261 0 0 1 0 12.94538296zM588.11884999 344.51658296999994a9.12649443 9.12649443 0 0 1-12.88065593 0l-75.73048889-75.76285298-102.78633813 102.72161223 75.89230592 75.89230592a9.12649443 9.12649443 0 0 1 0 12.88065593l-41.42522482 41.42522482a9.15885853 9.15885853 0 0 1-12.84829184 0l-75.89230592-75.92467001-48.90118371 48.93354667a8.99704149 8.99704149 0 0 1-6.47269149 2.58907704 9.61194667 9.61194667 0 0 1-6.50505443-2.58907704L164.74010851 358.75650333a227.77400889 227.77400889 0 0 1-27.63839146-288.42312704L50.49710592-16.271233710000047a9.12649443 9.12649443 0 0 1 0-12.84829184l48.25391445-48.2215515c1.81235371-1.84471666 4.11015851-2.65380295 6.47269149-2.65380295a9.41776555 9.41776555 0 0 1 6.47269148 2.62144l86.60460999 86.60460999a226.70601443 226.70601443 0 0 1 127.54438372-39.03032889c58.25422222 0 116.50844445 22.16896739 161.0081974 66.66872149l115.92590222 115.92590223a9.12649443 9.12649443 0 0 1 0 12.88065593l-48.90118371 48.90118258 75.85994297 75.89230705a9.12649443 9.12649443 0 0 1 0 12.88065479l-41.61940594 41.1663178z"  horiz-adv-x="1024" />

    
    <glyph glyph-name="supervise" unicode="&#59255;" d="M905.71924092 637.9700024399999v-209.34614531a468.52589619 468.52589619 0 0 0-29.8101709-164.96836172 528.70869492 528.70869492 0 0 0-206.98382989-258.67354131A482.9810168 482.9810168 0 0 0 512-61.38786034999998a482.86852558 482.86852558 0 0 0-156.92524013 66.36981445 528.14623886 528.14623886 0 0 0-206.98382989 258.72978692A468.13217695 468.13217695 0 0 0 118.28075908 428.56761153V637.9700024399999a56.24560547 56.24560547 0 0 0 34.70353946 51.97093946l337.47363456 139.71408485a56.24560547 56.24560547 0 0 0 43.0841338 0l337.47363456-139.71408485a56.24560547 56.24560547 0 0 0 34.70353946-51.97093946zM512 389.58940693V749.73002138L205.34895723 621.88375928V389.58940693H512v-365.03398125a364.30278925 364.30278925 0 0 1 113.3348959 52.19592188 432.24748067 432.24748067 0 0 1 91.11788086 84.42465468 451.70846016 451.70846016 0 0 1 102.19826601 228.35715909H512z"  horiz-adv-x="1024" />

    
    <glyph glyph-name="chart-relation" unicode="&#59277;" d="M410.30064031 249.61901999999998l-85.62525281-64.51874813a119.92332375 119.92332375 0 1 0-34.11818625 49.34844751l87.84383532 66.19767468a209.8658175 209.8658175 0 0 0 274.32460406 277.62249563l29.92086843 67.15706156a119.92332375 119.92332375 0 1 0 56.18407781-21.22642875l-34.47795562-77.35054406a209.44608562 209.44608562 0 0 0 76.09134938-161.71660219c0-52.28656969-19.06780875-100.07601375-50.66760469-136.77255094l93.00053812-114.886545a119.92332375 119.92332375 0 1 0-46.89001968-37.35611531l-91.32161157 112.72792499c-32.79902906-21.22642875-71.95399406-33.57853031-113.98711968-33.57853124a209.38612406 209.38612406 0 0 0-160.27752282 74.35246125z"  horiz-adv-x="1024" />

    
    <glyph glyph-name="tag-fill" unicode="&#59310;" d="M90.125 384L111.11328125 780.03515625 512 805.875l421.875-421.875-421.875-421.875-421.875 421.875z m241.734375 106.25976563a70.82226563 70.82226563 0 1 1 0 141.64453124 70.82226563 70.82226563 0 0 1 0-141.64453124z"  horiz-adv-x="1024" />

    
    <glyph glyph-name="databaseset-fill" unicode="&#59316;" d="M90.125 548.84765625l386.96484375-183.14648438V-37.875L90.125 145.90429687000005V548.84765625zM512.68554688 805.875l419.92382812-183.77929688L513.0546875 425.44921875 90.125 622.93945313 512.68554688 805.875zM933.875 548.84765625v-402.94335938L547.59570313-36.8203125V365.70117187000005L933.875 548.84765625z"  horiz-adv-x="1024" />

    
    <glyph glyph-name="user-fill" unicode="&#59349;" d="M512 384c110.51428571 0 200 89.48571429 200 200S622.51428571 784 512 784a199.94285714 199.94285714 0 0 1-200-200C312 473.48571429 401.48571429 384 512 384z m0-57.14285714c-133.48571429 0-400-76.57142857-400-228.57142857v-114.28571429h800v114.28571429c0 152-266.51428571 228.57142857-400 228.57142857z"  horiz-adv-x="1024" />

    
    <glyph glyph-name="process" unicode="&#59476;" d="M364.7 745.98A153.9 153.9 0 0 0 513.74 864c71.64 0 131.82-49.62 148.74-116.76a434.64 434.64 0 0 0 282.6-408.6c0-27.66-2.64-54.84-7.56-81.12 33.36-28.5 54.48-71.04 54.48-118.62 0-85.74-68.7-155.22-153.48-155.22-21 0-41.04 4.2-59.28 12A424.8 424.8 0 0 0 515.24-96c-97.62 0-187.74 33-259.92 88.5-20.94-10.8-44.7-16.98-69.84-16.98C100.7-24.480000000000018 32 45.059999999999945 32 130.79999999999995c0 50.82 24.18 96 61.5 124.26a441.78 441.78 0 0 0-7.92 83.64 434.7 434.7 0 0 0 279.12 407.28z m7.38-97.14a341.88 341.88 0 0 1-195.6-309.9c0-18 1.44-35.7 4.08-52.98l4.92 0.06c84.78 0 153.48-69.48 153.48-155.22a156 156 0 0 0-17.64-72.3 333.48 333.48 0 0 1 192.84-61.14 333.48 333.48 0 0 1 192.96 61.2 155.88 155.88 0 0 0-22.08 80.4c0 85.68 68.7 155.22 153.48 155.22 3.48 0 6.96-0.12 10.38-0.36a348.6 348.6 0 0 1 2.94 45.12c0 137.58-80.4 256.14-196.32 310.2a153.54 153.54 0 0 0-141.78-95.64 153.54 153.54 0 0 0-141.6 95.4z"  horiz-adv-x="1024" />

    
    <glyph glyph-name="terminal-fill" unicode="&#59491;" d="M62 721.5v-675h900V721.5H62z m213.4125-507.6L230.75 258.5625l135.61875 135.675L230.75 529.85625l44.6625 44.6625L455.75 394.2375l-180.3375-180.3375z m513.5625-11.64375H512V271.5h276.91875v-69.1875z"  horiz-adv-x="1024" />

    
    <glyph glyph-name="arrow-left-bold" unicode="&#59013;" d="M384 384L731.733333 693.333333c17.066667 14.933333 19.2 42.666667 4.266667 59.733334-14.933333 17.066667-42.666667 19.2-59.733333 4.266666l-384-341.333333c-10.666667-8.533333-14.933333-19.2-14.933334-32s4.266667-23.466667 14.933334-32l384-341.333333c8.533333-6.4 19.2-10.666667 27.733333-10.666667 12.8 0 23.466667 4.266667 32 14.933333 14.933333 17.066667 14.933333 44.8-4.266667 59.733334L384 384z"  horiz-adv-x="1024" />

    
    <glyph glyph-name="arrow-right-bold" unicode="&#59015;" d="M731.733333 416l-384 341.333333c-17.066667 14.933333-44.8 14.933333-59.733333-4.266666-14.933333-17.066667-14.933333-44.8 4.266667-59.733334L640 384 292.266667 74.666667c-17.066667-14.933333-19.2-42.666667-4.266667-59.733334 8.533333-8.533333 19.2-14.933333 32-14.933333 10.666667 0 19.2 4.266667 27.733333 10.666667l384 341.333333c8.533333 8.533333 14.933333 19.2 14.933334 32s-4.266667 23.466667-14.933334 32z"  horiz-adv-x="1024" />

    
    <glyph glyph-name="gongnengdingyi" unicode="&#60258;" d="M418.496 250.656l-159.456 90.752a32 32 0 0 1-31.68-55.616l159.456-90.752a32 32 0 0 1 31.68 55.616zM790.208 516.192a32 32 0 0 1-31.616 55.648L508.8 429.664l-249.76 142.144a32 32 0 0 1-31.68-55.616l253.344-144.16V64a32 32 0 1 1 64 0v309.312c0 0.992-0.48 1.856-0.576 2.848l246.08 140.032zM880.288 663.52L560.192 850.88a95.648 95.648 0 0 1-96.64 0L143.68 663.52A96.64 96.64 0 0 1 96 580.096v-397.664c0-34.784 18.624-66.88 48.736-84l320-181.92a95.52 95.52 0 0 1 94.496 0l320 181.92A96.576 96.576 0 0 1 928 182.432V580.096a96.64 96.64 0 0 1-47.712 83.424zM864 182.432c0-11.584-6.208-22.304-16.256-28l-320-181.92a31.776 31.776 0 0 0-31.488 0l-320 181.92A32.192 32.192 0 0 0 160 182.432V580.096c0 11.456 6.048 22.048 15.904 27.808l319.872 187.36a31.84 31.84 0 0 0 32.192 0l320.128-187.392c9.856-5.728 15.904-16.32 15.904-27.776v-397.664zM778.656 442.048l-149.344-88.128c-20.608-12.16-37.344-38.944-37.344-59.808v-176.416c0-20.864 16.704-27.904 37.344-15.744l149.344 88.128c20.608 12.16 37.344 38.944 37.344 59.808v176.416c0 20.864-16.704 27.904-37.344 15.744z"  horiz-adv-x="1024" />

    
    <glyph glyph-name="youhui" unicode="&#60469;" d="M920.830625 732.97078125a59.0625 59.0625 0 0 1-52.35890625 52.329375L548.41203125 819.96984375a59.15109375 59.15109375 0 0 1-48.1359375-16.9509375L98.82828125 401.5415625a59.0625 59.0625 0 0 1 0-83.514375L453.8234375-36.967968749999955a59.0625 59.0625 0 0 1 83.514375 0l401.4478125 401.4478125a59.0625 59.0625 0 0 1 16.9509375 48.16546875L920.830625 732.97078125z m-425.25-728.1815625L140.58546875 359.78437499999995 542.03328125 761.2321875l320.08921875-34.64015625 34.9059375-320.355-401.4478125-401.4478125zM694.59171875 671.48671875a103.359375 103.359375 0 1 1 0-206.71875 103.359375 103.359375 0 0 1 0 206.71875z m0-147.65625a44.296875 44.296875 0 1 0 0.02953125 88.62328125 44.296875 44.296875 0 0 0-0.02953125-88.62328125z"  horiz-adv-x="1024" />

    
    <glyph glyph-name="guizeyinqing" unicode="&#60499;" d="M928.00032 384a95.68 95.68 0 0 1-32.256-5.952l-145.376 218.08A111.04 111.04 0 0 1 768.00032 656a112 112 0 1 1-224 0c0-28.288 10.848-53.856 28.16-73.568l-146.528-268.64A157.024 157.024 0 0 1 384.00032 320c-31.808 0-61.344-9.6-86.272-25.664l-117.344 140.8C187.55232 448.576 192.00032 463.68 192.00032 480a96 96 0 1 1-58.624-88.448l118.208-141.856A159.328 159.328 0 0 1 224.00032 160c0-88.224 71.776-160 160-160s160 71.776 160 160c0 50.784-24.224 95.584-61.248 124.896l143.744 263.52c9.472-2.592 19.232-4.416 29.504-4.416 16.288 0 31.648 3.648 45.6 9.888l144.416-216.608A95.04 95.04 0 0 1 832.00032 288a96 96 0 1 1 96 96zM384.00032 64c-52.928 0-96 43.072-96 96s43.072 96 96 96 96-43.072 96-96-43.072-96-96-96z"  horiz-adv-x="1024" />

    
    <glyph glyph-name="huowudui" unicode="&#60500;" d="M960 642.816l-448 192-448-192v-547.392l448-190.72 38.688 16.48h8.192v3.488L960 95.39200000000005V642.816z m-448-163.424l-113.536 48.32 318.944 147.2c0.736 0.352 1.216 0.992 1.92 1.408l127.232-54.528L512 479.392z m128.704 230.624l-321.696-148.48-141.568 60.288L512 765.184l128.704-55.168zM128 573.312l128-54.496V320a32 32 0 1 1 64 0v171.52l0.064 0.032 174.816-74.432v-435.584L128 137.72799999999995V573.312z m430.88-579.104V429.792L896 573.312v-435.616l-337.12-143.488z"  horiz-adv-x="1024" />

    
    <glyph glyph-name="liujisuan" unicode="&#60502;" d="M832 160a128 128 0 0 1-125.28-101.824l-318.304 0.064c-8.352 5.568-13.44 43.616-16.448 69.76h92.384c14.592-19.328 37.568-32 63.648-32a80 80 0 1 1-78.4 96h-86.24c-11.616 63.136-38.336 128-122.144 128H96a32 32 0 1 1 0-64h145.248c32.32 0 47.136-19.776 56.704-64H96a32 32 0 0 1 0-64h211.552c6.72-60.064 15.584-133.824 82.24-133.824h318.176c0.8 0 1.44 0.384 2.208 0.448C726.272-57.696000000000026 774.4-96 832-96a128 128 0 0 1 0 256z m0-192a64 64 0 1 0 0.032 128.032A64 64 0 0 0 832-32zM96 384h384.512c1.344 0 2.496 0.608 3.776 0.768A127.744 127.744 0 0 1 608 288a128 128 0 0 1 0 256 127.744 127.744 0 0 1-123.712-96.768c-1.28 0.16-2.432 0.768-3.776 0.768H96a32 32 0 0 1 0-64z m512 96a64 64 0 1 0-0.032-128.032A64 64 0 0 0 608 480zM96 506.208h145.248c108.224 0 121.6 90.272 129.6 144.192 6.688 45.504 10.784 53.6 18.944 53.6h298.56c14.592-19.328 37.568-32 63.648-32a80 80 0 1 1-78.4 96h-283.808C323.52 768 313.888 702.88 307.52 659.7760000000001c-9.408-63.648-18.048-89.568-66.272-89.568H96a32 32 0 0 1 0-64z"  horiz-adv-x="1024" />

    
    <glyph glyph-name="zhunbeiliangchan" unicode="&#60586;" d="M512 227.776l369.696 184.832a32 32 0 0 0 28.608-57.216l-384-192a32 32 0 0 0-28.608 0l-384 192a32 32 0 0 0 28.608 57.216L512 227.776zM512 35.776l369.696 184.832a32 32 0 0 0 28.608-57.216l-384-192a32 32 0 0 0-28.608 0l-384 192a32 32 0 0 0 28.608 57.216L512 35.776zM113.696 547.36a32 32 0 0 0 0 57.28l384 192a32 32 0 0 0 28.608 0l384-192a32 32 0 0 0 0-57.28l-384-192a32 32 0 0 0-28.608 0l-384 192zM512 419.776L824.448 576 512 732.224 199.552 576 512 419.776z"  horiz-adv-x="1024" />

    
    <glyph glyph-name="kaitongshouqianmashengjitaobaozhengxin_1001zhengxin" unicode="&#58939;" d="M518.35902395 841.84973145c252.86023204 0 457.84973145-204.98949941 457.84973144-457.84973145s-204.98949941-457.84973145-457.84973144-457.84973145S60.5092925 131.13976795999997 60.5092925 384s204.98949941 457.84973145 457.84973145 457.84973145zM537.43609579 643.62623343a25.43609579 25.43609579 0 0 1-35.96663961 0l-240.11674845-240.09131185A12.71804789 12.71804789 0 0 1 270.35708638 381.81249592999995l71.03029852 0.01271785v-216.20681784a25.43609579 25.43609579 0 0 1 25.43609579-25.43609578h305.23315489a25.43609579 25.43609579 0 0 1 25.4360958 25.43609578v216.20681784h71.0557351a12.71804789 12.71804789 0 0 1 8.99165992 21.7097078z m-80.7596053-201.23767482a15.64319887 15.64319887 0 0 0 23.33761845-0.03815355l38.34491501-38.52296848 38.344915 38.52296848 1.23365107 1.19549573a15.64319887 15.64319887 0 0 0 20.98477877-0.38154084 15.89756033 15.89756033 0 0 0 0-23.18500159L545.06692526 385.86955337h40.23990407l1.60247405-0.07630888c7.93606231-0.81395487 14.11703368-7.55452057 14.11703368-15.74494346a15.77038003 15.77038003 0 0 0-15.71950773-15.83396927h-51.22829763v-29.20063912l51.22829763-0.08902584 1.60247405-0.07630889c7.93606231-0.81395487 14.11703368-7.55452057 14.11703368-15.74494344a15.77038003 15.77038003 0 0 0-15.71950773-15.83396929h-51.22829763v-46.0647703l-0.07630889-1.61519191A15.77038003 15.77038003 0 0 0 518.35902395 231.38342255999999a15.77038003 15.77038003 0 0 0-15.71950775 15.82125232v46.0647703h-51.22829762l-1.60247406 0.08902584A15.78309789 15.78309789 0 0 0 435.69171172 309.09069662a15.77038003 15.77038003 0 0 0 15.71950685 15.82125232h51.22829763v29.20063824h-51.22829763l-1.60247405 0.08902583A15.78309789 15.78309789 0 0 0 435.69171172 369.9592752a15.77038003 15.77038003 0 0 0 15.71950685 15.82125143H491.65112265l-33.88088013 34.24970402-1.20821446 1.23365017a15.91027817 15.91027817 0 0 0 0.12718117 21.12467779z"  horiz-adv-x="1038" />

    
    <glyph glyph-name="shouru" unicode="&#58999;" d="M846.03197104 528.65951531c-23.67155697 26.30173048-49.97328745 47.34311394-76.27501792 65.75432388-5.26034586 2.63017351-7.89051938 5.26034586-13.15086408 7.89051937 36.82242221 18.4112111 63.12415153 52.6034598 63.12415153 92.05605551 0 63.12415153-60.49397917 110.46726546-134.13882243 110.46726546-15.78103759 0-31.56207634-2.63017351-44.71294158-7.89051937-7.89051938-2.63017351-10.52069173-5.26034586-15.7810376-7.89051822-2.63017351 0-7.89051938 0-10.52069172 2.63017235-5.26034586 7.89051938-13.15086524 18.4112111-26.30173047 28.93190284-21.04138346 18.4112111-44.71294042 28.93190283-71.01467091 31.56207634-26.30173048-2.63017351-49.97328745-13.15086524-71.0146709-31.56207634-10.52069173-10.52069173-21.04138346-18.4112111-26.30172932-28.93190284 0 2.63017351-5.26034586 0-7.89051937 2.63017351-2.63017351 2.63017351-7.89051938 5.26034586-15.7810376 7.89051822-13.15086524 5.26034586-28.93190283 7.89051938-44.71294157 7.89051938-71.0146709 0-134.13882242-47.34311394-134.13882243-110.46726547 0-39.45259456 26.30173048-73.64484441 63.12415153-92.0560555-2.63017351-2.63017351-7.89051938-5.26034586-13.15086524-7.89051822-26.30173048-18.4112111-52.6034598-42.08276807-76.27501676-65.75432504-71.0146709-73.64484441-115.72761133-157.81037939-115.72761133-249.8664349 0-257.75695312 199.89314746-381.37508497 439.23889064-381.37508498h10.52069173c239.34574318 0 439.23889064 123.61813069 439.23889064 381.37508498-2.63017351 89.42588201-47.34311394 173.59141814-118.35778484 244.60608904z m-197.26297511-265.64747365c15.78103759 0 26.30173048-10.52069173 26.30172932-26.30172932s-10.52069173-26.30173048-26.30172932-26.30173048h-105.20691959V107.83183577c0-15.78103759-10.52069173-26.30173048-26.30173048-26.30173047s-26.30173048 10.52069173-26.30172932 26.30173047v102.57674609h-105.20692074c-15.78103759 0-26.30173048 10.52069173-26.30172932 26.30173048s10.52069173 26.30173048 26.30172932 26.30172932h105.20692074v63.12415268h-107.8370931c-15.78103759 0-26.30173048 10.52069173-26.30173047 26.30172932s10.52069173 26.30173048 26.30173047 26.30173048h78.90518911l-86.79570848 86.79570849c-10.52069173 10.52069173-10.52069173 26.30173048 0 36.8224222s26.30173048 10.52069173 36.8224222 0l105.20691959-105.20691959 105.2069196 105.20691959c10.52069173 10.52069173 26.30173048 10.52069173 36.8224222 0s10.52069173-26.30173048 0-36.8224222l-86.79570849-86.79570849h78.90518911c15.78103759 0 26.30173048-10.52069173 26.30173048-26.30173048s-10.52069173-26.30173048-26.30173048-26.30172932h-107.83709194v-63.12415268h105.20691959z"  horiz-adv-x="1024" />

    
    <glyph glyph-name="interactive_fill" unicode="&#59140;" d="M712.24888889 493.22666667a54.61333333 54.61333333 0 0 0-0.07281778 109.22666666h0.14563556a54.61333333 54.61333333 0 0 0-0.07281778-109.22666666m-182.04444444 0a54.61333333 54.61333333 0 0 0-0.07281778 109.22666666h0.14563555a54.61333333 54.61333333 0 0 0-0.07281777-109.22666666m412.8403911 291.27111111h-0.03640888c-9.72117333 21.48124445-30.54705778 36.40888889-54.79537778 36.40888889H354.24028445c-24.24832 0-45.11061333-14.92764445-54.79537778-36.40888889a64.29809778 64.29809778 0 0 1-5.89824-26.46926223V602.4533333300001H111.50222222h60.69361778C138.73607111 602.4533333300001 111.50222222 574.2000355499999 111.50222222 539.46595555v-429.11516444c0-34.77048889 27.30666667-62.98737778 60.80284445-62.98737778H241.80963555c1.56558222-0.07281778 3.96856889-1.09226667 6.15310223-2.43939555l0.29127111-52.17393778c0-3.16757333 0.72817778-6.18951111 1.56558222-9.24785778a35.89916445 35.89916445 0 0 1 5.97105778-12.74311111c11.57802667-15.03687111 28.39893333-23.66577778 46.27569778-23.66577778h0.07281778c16.82090667 0 32.69518222 7.64586667 44.16398222 21.00792889l16.20195555 15.40096 51.04526223 48.56945778c2.25735111 2.11171555 5.42492445 6.62641778 7.06332444 9.24785778a18.0224 18.0224 0 0 0 10.30371556 6.00746667h275.28760888c17.40344889 0 33.09568 7.68227555 44.20039112 19.91566222l-0.40049778 0.40049778h0.61895111l-32.95004445 31.0931911-22.28224 21.40842667h-0.40049778l-90.84017777 85.77934223H366.36444445c-130.88995555 1.12867555-134.27598222 108.06158222-134.27598223 108.06158222V562.40355555c0.14563555 1.23790222 0.76458667 2.36657778 0.76458667 3.67729778 0 1.31072-0.61895111 2.40298667-0.76458667 3.67729778v0.29127111h-0.03640889A36.0448 36.0448 0 0 1 196.44416 602.4533333300001H293.54666667v-273.75843555c0-6.11669333 1.12867555-11.90570667 2.73066666-17.47626667 7.39100445-26.17799111 30.43783111-45.43829333 57.92654222-45.43829333h275.2876089a18.0224 18.0224 0 0 0 10.26730666-5.93464889 36.15402667 36.15402667 0 0 1 7.09973334-9.32067556l67.28362666-63.97041778c11.43239111-13.36206222 27.37948445-21.00792889 44.16398222-21.00792888 2.91271111 0 5.71619555 0.58254222 8.55608889 1.01944888a58.9824 58.9824 0 0 1 37.75601778 22.6463289c4.84238222 6.29873778 7.50023111 14.01742222 7.57304889 21.99096888l0.29127111 52.17393778a15.03687111 15.03687111 0 0 0 6.08028445 2.40298667h69.54097777c27.59793778 0 50.68117333 19.29671111 58.10858667 45.40188444a64.07964445 64.07964445 0 0 1 2.69425778 17.62190223V757.91928889c0 9.53912889-2.18453333 18.49571555-5.86183112 26.61489778"  horiz-adv-x="1024" />

    
    <glyph glyph-name="zijinanquan" unicode="&#58986;" d="M514.14965715 834.50808641c3.94260262-0.37548596 7.84765751-1.20155508 11.60251712-2.44065876l375.22314645-136.60180209A34.13167579 34.13167579 0 0 0 924.93132604 662.91099082v-252.58942307c0-300.46388596-328.02455739-432.44721072-408.52875313-473.48782909a35.93400928 35.93400928 0 0 0-15.01943939-3.52956806 34.69490474 34.69490474 0 0 0-14.94434221 3.52956806C405.93459561-22.08809437000002 98.86215668 108.46838284 98.86215668 408.55678374V662.04737311a34.9201963 34.9201963 0 0 0 23.20503339 32.44198895L502.92262596 832.06742765A46.935748 46.935748 0 0 0 514.14965715 834.50808641z m88.61469251-232.95150633L511.89674136 504.45590481 420.24061167 601.55658008a26.50931074 26.50931074 0 0 1-19.52527096 7.50972014c-7.50972014-0.93871491-14.26846747-4.88131752-18.77429902-10.92664241a38.29957085 38.29957085 0 0 1 1.87742981-45.8092901l87.11274867-91.61858109H388.73733762a34.65735614 34.65735614 0 0 1 0-67.58747684h95.74892668v-50.24002535H388.73733762a34.65735614 34.65735614 0 0 1 0-67.58747772h95.74892668V192.42704943a28.01125459 28.01125459 0 1 1 54.8209541-1e-8v82.60691712h95.44853794a34.54471033 34.54471033 0 0 1 0 67.62502631H539.30721841v50.20247675h95.37344073v0.22529159a34.54471033 34.54471033 0 0 1 1e-8 67.58747683h-81.8559452l85.98629078 91.6185811c10.70135082 13.21710678 11.45232275 31.84121141 1.87742983 45.8092901a21.59044462 21.59044462 0 0 1-18.39881307 10.964191 22.52915953 22.52915953 0 0 1-19.52527184-7.50972014z"  horiz-adv-x="1024" />

    
    <glyph glyph-name="peixun" unicode="&#58882;" d="M1003.99422498 549.12840089l-483.915206 208.11180642a23.32387768 23.32387768 0 0 1-9.2306718 1.91942136c-3.1408713 0-6.2759262-0.63980711-9.2539375-1.91942136L17.68502011 549.12840089c-10.20201533-4.36813769-16.96070508-15.51241442-16.96070508-27.93630536 0-12.44715667 6.75868975-23.56235126 16.96070508-27.95375466L501.58859325 285.12071803000003a23.05050555 23.05050555 0 0 1 18.4846093 0l376.23566792 161.80722031v-165.5355509c-20.1655571-10.67896245-34.17733299-33.90977729-34.177333-60.92127055 0-27.01730968 14.0117759-50.24230811 34.177333-60.92127054v-57.74550069h49.55596956v57.73386783c20.17718995 10.67896245 34.2005987 33.90977729 34.2005987 60.9329034s-14.02340876 50.25394097-34.2005987 60.93290341V468.23933181l58.12356851 24.99900906c10.1961989 4.39140341 16.95488865 15.51241442 16.95488865 27.95375466 0 12.42389097-6.75868975 23.56816768-16.95488865 27.93630536z m-493.1458778-305.77545486a54.49411722 54.49411722 0 0 0-21.61966418 4.49609912L187.55962654 377.60192882v-179.15180967c0-146.73103803 220.00058598-190.77884992 288.78566766-190.77884993h68.94794169c51.52773876 0 288.80893336 44.04781191 288.80893336 190.77884993v179.14599324l-301.68068932-129.74706724a54.2614601 54.2614601 0 0 0-21.57894918-4.49609912z"  horiz-adv-x="1024" />

    
    <glyph glyph-name="geren" unicode="&#58992;" d="M535.6 384.2c95.1 10.5 172.1 87.5 182.6 182.6C732 692 634.4 797.8 512 797.8c-114.6 0-207.5-92.8-207.5-207.4v-0.1c0-122.4 105.9-219.9 231.1-206.1zM512 323.6c-138.5 0-415-79.4-415-237.1v-88.9c0-16.4 13.3-29.6 29.6-29.6h770.7c16.4 0 29.6 13.3 29.6 29.6v88.9C927 244.1 650.5 323.6 512 323.6z"  horiz-adv-x="1024" />

    
    <glyph glyph-name="tubiaozhizuo-" unicode="&#58885;" d="M512 217.12c-184.36 0-333.79 57.33-333.79 149.49v-93.86c0-92.17 149.44-166.87 333.79-166.87s333.72 74.7 333.72 166.87v93.86c0.04-92.16-149.36-149.49-333.72-149.49z m0-166.87c-184.36 0-333.79 57.33-333.79 149.49v-93.86C178.24 13.700000000000045 327.68-61 512-61s333.72 74.7 333.72 166.87v93.86c0.04-92.15-149.36-149.49-333.72-149.49zM512 384c-184.36 0-333.79 57.32-333.79 149.49v-93.87c0-92.16 149.44-166.87 333.79-166.87s333.72 74.72 333.72 166.87v93.87C845.76 441.32 696.36 384 512 384z m0 445c-184.36 0-333.79-74.71-333.79-166.88v-55.62c0-92.17 149.44-166.88 333.79-166.88s333.76 74.71 333.76 166.88v55.62C845.76 754.29 696.36 829 512 829z"  horiz-adv-x="1024" />

    
    <glyph glyph-name="coupons_fill" unicode="&#59117;" d="M621.22666667 311.18222221999997a25.48622222 25.48622222 0 0 0 0-50.97244444h-83.74044445v-21.84533333a25.48622222 25.48622222 0 1 0-50.97244444 0v21.84533333H402.77333333a25.48622222 25.48622222 0 1 0 0 50.97244444h83.74044445v58.25422223H402.77333333a25.48622222 25.48622222 0 1 0 0 50.97244444h73.25468445l-0.25486223 0.18204444-72.81777777 72.81777778a25.48622222 25.48622222 0 0 0 36.0448 36.0448l72.81777777-72.81777778 0.18204445-0.25486222 0.18204445 0.25486222 72.81777777 72.81777778a25.44981333 25.44981333 0 1 0 36.0448-36.0448l-72.81777777-72.81777778-0.25486223-0.18204444H621.22666667a25.48622222 25.48622222 0 0 0 0-50.97244444h-83.74044445V311.18222221999997H621.22666667z m291.27111111 182.04444445h36.40888889V675.5259733299999A72.81777778 72.81777778 0 0 1 876.01607111 748.08888889H147.98392889A72.81777778 72.81777778 0 0 1 75.09333333 675.5259733299999V493.22666667h36.40888889c60.22030222 0 109.22666667-49.00636445 109.22666667-109.22666667s-49.00636445-109.22666667-109.22666667-109.22666667H75.09333333v-182.29930666A72.81777778 72.81777778 0 0 1 147.98392889 19.91111110999998h728.03214222A72.81777778 72.81777778 0 0 1 948.90666667 92.47402666999994V274.77333333h-36.40888889c-60.22030222 0-109.22666667 49.00636445-109.22666667 109.22666667s49.00636445 109.22666667 109.22666667 109.22666667z"  horiz-adv-x="1024" />

    
    <glyph glyph-name="document_fill" unicode="&#59123;" d="M833.728 555.872l-163.904 178.144c-7.744 8.448-18.4 15.552-29.824 21.28v-211.2l202.4-0.064c-2.752 4.192-5.536 8.448-8.64 11.84M640 320h-256a32 32 0 1 0 0 64h256a32 32 0 1 0 0-64m0-160h-256a32 32 0 1 0 0 64h256a32 32 0 1 0 0-64m223.808 320h-223.744A64.128 64.128 0 0 0 576 544.128V768H223.808A64 64 0 0 1 160 703.936v-639.84A64 64 0 0 1 223.744 0h576.512A64 64 0 0 1 864 64.16V478.368c0 0.544-0.16 1.12-0.192 1.664"  horiz-adv-x="1024" />

    
    <glyph glyph-name="flag_fill" unicode="&#59131;" d="M788.352 352.64l-111.168 153.312 111.168 153.376c12.16 16.8 14.528 35.584 6.4 51.552C786.624 726.816 769.984 736 749.12 736H288.064A63.968 63.968 0 0 1 224 672.224V32a32 32 0 0 1 64 0v243.968h461.12c20.992 0 37.696 9.184 45.824 25.088 8.064 15.84 5.696 34.656-6.592 51.584"  horiz-adv-x="1024" />

    
    <glyph glyph-name="Parentchild-Filled" unicode="&#59056;" d="M291.5 510a31.5 31.5 0 0 0-31.5 31.5V762a31.5 31.5 0 0 0 31.5 31.5h441a31.5 31.5 0 0 0 31.5-31.5v-220.5a31.5 31.5 0 0 0-31.5-31.5h-189v-94.5h252a63 63 0 0 0 63-63v-126h63a31.5 31.5 0 0 0 31.5-31.5v-189a31.5 31.5 0 0 0-31.5-31.5h-189a31.5 31.5 0 0 0-31.5 31.5v189a31.5 31.5 0 0 0 31.5 31.5h63v126h-252v-126h63a31.5 31.5 0 0 0 31.5-31.5v-189a31.5 31.5 0 0 0-31.5-31.5h-189a31.5 31.5 0 0 0-31.5 31.5v189a31.5 31.5 0 0 0 31.5 31.5h63v126H228.5v-126h63a31.5 31.5 0 0 0 31.5-31.5v-189a31.5 31.5 0 0 0-31.5-31.5H102.5a31.5 31.5 0 0 0-31.5 31.5v189a31.5 31.5 0 0 0 31.5 31.5h63v126a63 63 0 0 0 63 63h252v94.5H291.5z"  horiz-adv-x="1024" />

    
    <glyph glyph-name="yk_guoji_fill" unicode="&#58880;" d="M512 832C264.8 832 64 631.2 64 384s200.8-448 448-448 448 200.8 448 448S759.2 832 512 832z m-46.4-831.2c-189.6 23.2-336 184.8-336 380.8 0 29.6 4 58.4 10.4 85.6l229.6-229.6v-48c0-52.8 43.2-96 96-96v-92.8z m331.2 124c-12 39.2-48 67.2-91.2 67.2h-48V335.20000000000005c0 27.2-21.6 48.8-48.8 48.8H313.6v96h103.2c27.2 0 48.8 21.6 48.8 48.8V624H560c53.6 0 97.6 44 97.6 97.6V740c140.8-56.8 240-194.4 240-356 0-100-37.6-190.4-100.8-259.2z"  horiz-adv-x="1024" />

    
    <glyph glyph-name="jiantou_qiehuanyou" unicode="&#60165;" d="M832.39822222 481.09036999H948.90666667l-97.09037-92.23585109-150.49007445-150.49007445-58.25422222 58.25422222 92.23585223 92.23585223H75.09333333V481.09036999h757.30488889z"  horiz-adv-x="1024" />

    
    <glyph glyph-name="qiyegongchangjianzhu2" unicode="&#59395;" d="M928 64 896 64 896 512c0 70.4-57.6 128-128 128L576 640l0-544C576 78.08 561.92 64 544 64S512 78.08 512 96L512 704c0 70.4-57.6 128-128 128L192 832C121.6 832 64 774.4 64 704l0-640L32 64C14.08 64 0 49.92 0 32 0 14.08 14.08 0 32 0l896 0c17.92 0 32 14.08 32 32C960 49.92 945.92 64 928 64zM352 192l-128 0C206.08 192 192 206.08 192 224S206.08 256 224 256l128 0C369.92 256 384 241.92 384 224S369.92 192 352 192zM352 384l-128 0C206.08 384 192 398.08 192 416 192 433.92 206.08 448 224 448l128 0C369.92 448 384 433.92 384 416 384 398.08 369.92 384 352 384zM352 576l-128 0C206.08 576 192 590.08 192 608 192 625.92 206.08 640 224 640l128 0C369.92 640 384 625.92 384 608 384 590.08 369.92 576 352 576zM800 192l-128 0c-17.92 0-32 14.08-32 32s14.08 32 32 32l128 0c17.92 0 32-14.08 32-32S817.92 192 800 192zM800 384l-128 0C654.08 384 640 398.08 640 416 640 433.92 654.08 448 672 448l128 0C817.92 448 832 433.92 832 416 832 398.08 817.92 384 800 384z"  horiz-adv-x="1024" />

    
    <glyph glyph-name="ego-boxfull" unicode="&#58890;" d="M530.50060792 370.7843686l-1.32177583-440.06521311 379.2762861 222.01473858v440.0652131zM512 406.46593536l376.63273447 220.69402614-376.63273447 219.37225032-376.63273447-219.37225032zM490.85584046 373.42792022000003l-375.31095865 219.37225032v-440.06521307l373.98811945-218.05047452z"  horiz-adv-x="1024" />

    
    <glyph glyph-name="renxiang" unicode="&#58914;" d="M514.267 258.27c110.524 0 255.727 147.353 255.727 333.756 0 186.368-93.184 260.044-255.727 260.044s-260.062-71.509-260.062-260.044c0-185.105 149.539-333.756 260.062-333.756z m505.515-243.251c-12.39 35.123-27.238 69.734-41.694 85.111-26.863 28.536-181.128 110.387-249.327 145.835a37.035 37.035 0 0 1-49.698-15.275l-77.892-144.094c-10.991-20.326-41.575-14.745-44.68 8.158a23.938 23.938 0 0 0 2.508 14.285l17.203 32.836a23.842 23.842 0 0 1-2.884 26.454l-32.939 39.048a37.069 37.069 0 0 1-56.695-0.017l-32.853-39.014a23.893 23.893 0 0 1-2.885-26.47l17.203-32.82a23.833 23.833 0 0 0 2.51-14.285c-3.09-22.903-33.69-28.484-44.681-8.158l-77.893 144.094a37.035 37.035 0 0 1-49.698 15.275C227.19 210.534 72.923 128.7 46.06 100.147 31.588 84.77 16.74 50.16 4.367 15.036c-17.05-48.35 18.585-99.072 69.853-99.072h875.657c51.32-0.034 86.972 50.705 69.905 99.055z"  horiz-adv-x="1024" />

    
    <glyph glyph-name="jiaoyiguanli" unicode="&#58888;" d="M688.30832336 625.7092900800001c-156.76802028 0-267.73835879 52.23921099-287.33534583 104.47684781 0 65.28287505 130.56732426 110.99867985 287.33534583 110.99868114 93.95720587 0 180.18174239-17.85709652 231.67618608-47.20376522 30.85194873-17.58312304 49.21290544-39.31363989 49.21290544-63.79491592-5.21494645-13.86873414-16.82261027-27.73431869-33.93178991-40.60792831-47.3281561-35.66695664-136.52388967-63.8689195-246.95730161-63.8689195zM688.30832336 63.935829489999946l-49.31367748-0.04723769v143.76529599c82.54951196-20.4881886 264.9183198 19.64737305 330.202769 65.33483522v-117.62285807c0-52.24078644-124.12579502-91.43003543-280.88909152-91.43003545zM688.30832336 246.89194864h-49.31367748v143.66767227c29.67417781-11.85487015 134.73991107 3.64510908 172.6443192 10.64245866 63.14934524 11.6816687 116.72378442 32.59498754 157.5584498 61.16854634v-110.99867985c-19.65209682-52.23921099-130.57677179-104.47999743-280.88909152-104.47999742zM681.75972286 436.25180814h-26.0920506c-6.5485992 84.87986208-124.12579502 130.6680963-254.69312057 143.74325128v71.83304841c65.30491845-39.19239861 163.21742289-71.83304841 287.33534582-71.83304841 117.56932373 0 215.60464231 32.64064979 274.33891817 71.83304841v-111.10102604c-19.54974932-52.23763682-130.56889971-104.47527366-280.88909282-104.47527365zM335.69010249 331.77495904c-150.26665748 0-261.29210578 45.68746347-280.88909152 104.4768491 0 58.76104302 130.62243404 104.47527366 280.88909152 111.07268471 156.71291049 0 280.78517117-52.31321585 280.78517117-111.07268471-19.55132479-52.23763682-130.59724103-104.47684782-280.78517117-104.4768491zM335.69010249 122.72206553000001c-150.26665748 0-261.29210578 52.33998303-280.88909152 104.57761985v117.52523564c65.31121767-45.69218724 156.73652933-71.83619802 280.88909152-71.83619801 124.06911107 0 222.04617155 26.14401207 280.78517117 71.83619801v-117.52523564c-19.55132479-52.23763682-130.59724103-104.57761985-280.78517117-104.57761985zM335.69010249-73.18481902999997c-150.26665748 0-280.88909281 39.19239861-280.88909152 91.42846128v117.52523565c58.78781018-45.69218724 163.2646593-71.83304841 280.88909152-71.83304841 124.06911107 0 222.04617155 32.69103582 280.78517117 71.83304841v-117.52523565c0-52.23763682-130.59724103-91.42846128-280.78517117-91.42846128z"  horiz-adv-x="1024" />

    
    <glyph glyph-name="gouxuan" unicode="&#58921;" d="M467.18945967 143.58973330000003c-10.80946143 0-21.62002148 4.12866738-29.86417178 12.38490264L263.64660839 329.62804599000003c-16.4795124 16.49269599-16.4795124 43.21587305 1e-8 59.70856905 16.47511787 16.49159737 43.21587305 16.49159737 59.69977998 0l143.84307129-143.85295898 367.43379785 367.47664453c16.49269599 16.49159737 43.22466211 16.49159737 59.71625948 0 16.46193428-16.47182198 16.46193428-43.20378809 0-59.69977999L497.02067247 155.96255097999995C488.78531123 147.71840067999995 477.96596211 143.58973330000003 467.18945967 143.58973330000003L467.18945967 143.58973330000003zM512.00274658-66C263.87402539-66 62 135.86963086000003 62 383.99615479 62 632.12597461 263.87402539 834 512.00274658 834c88.51255928 0 174.19393828-25.68496816 247.74200157-74.27755635 14.8139833-9.78553477 18.88332364-29.72354677 9.11097333-44.53753008-9.78443613-14.80629287-29.72354677-18.89650722-44.53753007-9.11097334-63.01655683 41.6360373-136.44047461 63.64277754-212.31544483 63.64277755-212.69337451 0-385.7183666-173.02608984-385.7183666-385.71946525 0-212.68788135 173.02608984-385.7150707 385.7183666-385.7150707 212.68897998 0 385.7150707 173.02718848 385.71507071 385.7150707 0 13.42421104-0.68225185 26.93960771-2.05554463 40.17814981-1.82812763 17.66384033 11.01160987 33.45231094 28.66775976 35.27164951 17.6385709 1.83252217 33.45231094-11.01160987 35.27164951-28.66336523 1.59631523-15.42372451 2.3994167-31.15616573 2.39941671-46.78643409C962 135.86963086000003 760.13036914-66 512.00274658-66L512.00274658-66zM512.00274658-66"  horiz-adv-x="1025" />

    
    <glyph glyph-name="add" unicode="&#58980;" d="M926.25224651 422.83614815H550.83614815V798.25224651c0 20.71261275-18.12353539 38.83614815-38.83614815 38.83614815s-38.83614815-18.12353539-38.83614815-38.83614815v-375.41609836H97.74775349c-20.71261275 0-38.83614815-18.12353539-38.83614815-38.83614815s18.12353539-38.83614815 38.83614815-38.83614815h375.41609836V-30.252246509999964c0-20.71261275 18.12353539-38.83614815 38.83614815-38.83614815s38.83614815 18.12353539 38.83614815 38.83614815V345.16385185H926.25224651c20.71261275 0 38.83614815 18.12353539 38.83614815 38.83614815s-18.12353539 38.83614815-38.83614815 38.83614815z"  horiz-adv-x="1024" />

    
    <glyph glyph-name="youxiang" unicode="&#58983;" d="M147.54207898 738.42649194l726.10912 0c49.58540495 0 90.12693029-39.0861887 90.75064585-87.21625702l-453.5453247-246.36773282L57.20724419 651.00233041C57.62305422 699.23634997 97.85272178 738.42649194 147.54207898 738.42649194L147.54207898 738.42649194zM57.20724419 556.71729473l-0.41581003-435.87337752c0-48.54587835 40.85338311-88.2557826 90.75064584-88.25578261l726.10912 0c49.89726273 0 90.75064584 39.70990425 90.75064584 88.25578261L964.40184584 556.92520025 521.45968965 321.992256c-6.75692089-3.6383421-14.96917841-3.6383421-21.7260993 0L57.20724419 556.71729473 57.20724419 556.71729473zM57.20724419 556.71729473"  horiz-adv-x="1024" />

    
    <glyph glyph-name="dianhua" unicode="&#58989;" d="M610.5451875 205.72381070999995l25.2756884 15.87078125a247.46662232 247.46662232 0 0 0 26.45130178 14.10736072c58.78067054 26.45130178 108.15643304 7.64148749 176.34201071-70.53680446a124.02721428 124.02721428 0 0 0 37.61962857-129.90528126A161.05903661 161.05903661 0 0 0 796.29210536-40.56719733l-32.32936875-18.80981428c-95.22468571-58.78067054-313.30097232 75.82706429-470.24536251 305.65948483S95.62651518 723.58151696 192.02681518 782.36218661L204.9585625 792.94270714l13.51955357 8.8171009a159.29561697 159.29561697 0 0 0 117.56134107 37.61962857 140.48580179 140.48580179 0 0 0 94.63687947-83.46855179c58.78067054-105.21739999 43.49769643-155.18096964-28.21472233-201.02989197L375.42250625 539.5980187499999c-17.6342009-11.16832768 12.34394108-84.05635893 81.70513214-186.334725S588.20853304 194.55548394000004 610.5451875 205.72381070999995z"  horiz-adv-x="1024" />

    
    <glyph glyph-name="dizhi" unicode="&#58920;" d="M512 839.11111111C307.85015873 839.11111111 142.70984127 675.27111111 142.70984127 473.72190476c0-224.95492063 219.75365079-421.30285714 338.08253968-531.82984127 18.20444444-16.90412698 45.51111111-16.90412698 63.71555556 0 114.42793651 107.92634921 338.08253968 308.1752381 338.08253968 531.82984127C882.59047619 675.27111111 716.14984127 839.11111111 512 839.11111111z m0-503.22285714c-76.71873016 0-139.13396825 61.11492063-139.13396825 137.83365079S435.28126984 610.2552381 512 610.2552381c76.71873016 0 139.13396825-61.11492063 139.13396825-137.8336508S588.71873016 335.88825397000005 512 335.88825397000005z"  horiz-adv-x="1024" />

    


  </font>
</defs>
</svg>
